<svg width="297" height="109" viewBox="0 0 297 109" fill="none" xmlns="http://www.w3.org/2000/svg">
<path d="M202.573 63H154L182.978 19H231L202.573 63Z" fill="white"/>
<path d="M125.573 107H77L105.978 63H154L125.573 107Z" fill="white"/>
<path d="M1.2 54L7.104 20.4H19.68C22.176 20.4 24.192 20.832 25.728 21.696C27.296 22.528 28.432 23.664 29.136 25.104C29.872 26.512 30.192 28.08 30.096 29.808C30 32.112 29.36 34.128 28.176 35.856C26.992 37.584 25.36 38.928 23.28 39.888C21.232 40.848 18.816 41.328 16.032 41.328H9.936L7.68 54H1.2ZM10.848 36.096H16.56C18.704 36.096 20.368 35.584 21.552 34.56C22.736 33.504 23.36 32.048 23.424 30.192C23.488 28.784 23.12 27.68 22.32 26.88C21.552 26.08 20.24 25.68 18.384 25.68H12.672L10.848 36.096ZM51.993 54L57.945 20.4H64.425L58.473 54H51.993ZM30.825 54L36.729 20.4H43.209L37.305 54H30.825ZM38.937 39.408L39.897 34.272H56.553L55.641 39.408H38.937ZM62.8346 54L81.0266 20.4H88.4186L94.7066 54H87.8426L83.4266 27.648L69.6506 54H62.8346ZM69.2186 46.368L71.7626 41.376H89.4746L90.2906 46.368H69.2186ZM110.364 54.576C107.932 54.576 105.82 54.16 104.028 53.328C102.268 52.496 100.956 51.28 100.092 49.68C99.228 48.08 98.972 46.144 99.324 43.872H106.188C106.028 44.928 106.124 45.856 106.476 46.656C106.86 47.456 107.468 48.08 108.3 48.528C109.132 48.944 110.108 49.152 111.228 49.152C112.348 49.152 113.324 48.96 114.156 48.576C115.02 48.16 115.676 47.616 116.124 46.944C116.604 46.24 116.876 45.408 116.94 44.448C116.972 43.808 116.844 43.248 116.556 42.768C116.3 42.256 115.932 41.808 115.452 41.424C114.972 41.008 114.396 40.656 113.724 40.368C113.052 40.048 112.332 39.76 111.564 39.504C110.796 39.216 109.996 38.928 109.164 38.64C106.892 37.872 105.18 36.8 104.028 35.424C102.876 34.048 102.348 32.368 102.444 30.384C102.54 28.24 103.164 26.384 104.316 24.816C105.468 23.216 107.004 21.984 108.924 21.12C110.876 20.256 113.084 19.824 115.548 19.824C117.788 19.824 119.692 20.208 121.26 20.976C122.86 21.744 124.044 22.864 124.812 24.336C125.612 25.776 125.884 27.52 125.628 29.568H118.668C118.828 28.704 118.732 27.952 118.38 27.312C118.06 26.672 117.564 26.176 116.892 25.824C116.22 25.472 115.404 25.296 114.444 25.296C113.484 25.264 112.62 25.424 111.852 25.776C111.116 26.128 110.54 26.608 110.124 27.216C109.708 27.824 109.468 28.544 109.404 29.376C109.372 29.984 109.468 30.512 109.692 30.96C109.916 31.376 110.236 31.76 110.652 32.112C111.068 32.432 111.564 32.736 112.14 33.024C112.748 33.28 113.404 33.536 114.108 33.792C114.812 34.048 115.548 34.32 116.316 34.608C117.404 34.992 118.412 35.456 119.34 36C120.3 36.512 121.132 37.136 121.836 37.872C122.572 38.576 123.116 39.424 123.468 40.416C123.852 41.376 124.012 42.48 123.948 43.728C123.852 45.872 123.228 47.76 122.076 49.392C120.924 50.992 119.34 52.256 117.324 53.184C115.308 54.112 112.988 54.576 110.364 54.576ZM127.809 54L133.713 20.4H154.977L154.065 25.536H139.281L137.745 34.464H151.089L150.177 39.456H136.833L135.201 48.864H149.937L149.025 54H127.809Z" fill="white"/>
<path d="M155.2 108L161.104 74.4H167.632L178.912 97.776L183.04 74.4H189.52L183.568 108H177.136L165.808 84.624L161.68 108H155.2ZM190.263 108L196.167 74.4H217.431L216.519 79.536H201.734L200.199 88.464H213.543L212.631 93.456H199.287L197.655 102.864H212.391L211.479 108H190.263ZM224.122 108L221.29 74.4H228.202L229.402 100.608L240.97 74.4H248.17L250.186 100.56L260.698 74.4H267.658L252.682 108H244.954L242.794 83.568L231.85 108H224.122ZM277.911 108.576C275.479 108.576 273.367 108.16 271.575 107.328C269.815 106.496 268.503 105.28 267.639 103.68C266.775 102.08 266.519 100.144 266.871 97.872H273.735C273.575 98.928 273.671 99.856 274.023 100.656C274.407 101.456 275.015 102.08 275.847 102.528C276.679 102.944 277.655 103.152 278.775 103.152C279.895 103.152 280.871 102.96 281.703 102.576C282.567 102.16 283.223 101.616 283.671 100.944C284.151 100.24 284.423 99.408 284.487 98.448C284.519 97.808 284.391 97.248 284.103 96.768C283.847 96.256 283.479 95.808 282.999 95.424C282.519 95.008 281.943 94.656 281.271 94.368C280.599 94.048 279.879 93.76 279.111 93.504C278.343 93.216 277.543 92.928 276.711 92.64C274.439 91.872 272.727 90.8 271.575 89.424C270.423 88.048 269.895 86.368 269.991 84.384C270.087 82.24 270.711 80.384 271.863 78.816C273.015 77.216 274.551 75.984 276.471 75.12C278.423 74.256 280.631 73.824 283.095 73.824C285.335 73.824 287.239 74.208 288.807 74.976C290.407 75.744 291.591 76.864 292.359 78.336C293.159 79.776 293.431 81.52 293.175 83.568H286.215C286.375 82.704 286.279 81.952 285.927 81.312C285.607 80.672 285.111 80.176 284.439 79.824C283.767 79.472 282.951 79.296 281.991 79.296C281.031 79.264 280.167 79.424 279.399 79.776C278.663 80.128 278.087 80.608 277.671 81.216C277.255 81.824 277.015 82.544 276.951 83.376C276.919 83.984 277.015 84.512 277.239 84.96C277.463 85.376 277.783 85.76 278.199 86.112C278.615 86.432 279.111 86.736 279.687 87.024C280.295 87.28 280.951 87.536 281.655 87.792C282.359 88.048 283.095 88.32 283.863 88.608C284.951 88.992 285.959 89.456 286.887 90C287.847 90.512 288.679 91.136 289.383 91.872C290.119 92.576 290.663 93.424 291.015 94.416C291.399 95.376 291.559 96.48 291.495 97.728C291.399 99.872 290.775 101.76 289.623 103.392C288.471 104.992 286.887 106.256 284.871 107.184C282.855 108.112 280.535 108.576 277.911 108.576Z" fill="white"/>
</svg>
